<svg width="189" height="54" viewBox="0 0 189 54" fill="none" xmlns="http://www.w3.org/2000/svg">
<path d="M54.76 36.51C57.34 36.51 59.71 35.79 61.57 34.29C63.43 32.76 64.54 30.57 64.54 27.51C64.54 21.39 60.94 18.21 55 18.21C51.46 18.21 48.58 19.41 47.02 21.9V13.2H42.04V36H46.48L46.78 33.21C48.1 35.43 50.65 36.51 54.76 36.51ZM53.08 32.4C48.82 32.4 46.84 30.78 46.84 27.51C46.84 24.12 49.12 22.26 53.14 22.26C57.52 22.26 59.35 24.06 59.35 27.51C59.35 30.69 57.67 32.4 53.08 32.4Z" fill="black"/>
<path d="M83.7806 31.92L84.2306 36H88.3706V25.29C88.3706 21.54 86.8106 19.62 83.7806 18.78C82.2506 18.39 80.4206 18.18 78.1706 18.18C71.5406 18.18 67.8506 20.19 67.2806 24.78H72.5306C72.6806 23.4 73.4006 22.56 75.1406 22.17C75.9806 21.93 77.1206 21.84 78.6206 21.84C81.1106 21.84 82.4606 22.32 83.0306 23.01C83.3606 23.37 83.4806 23.73 83.4806 24.12V24.15C83.4806 24.9 83.0006 25.29 81.5906 25.5C80.9006 25.62 79.9106 25.68 78.6206 25.77C74.9306 25.98 72.8906 26.22 71.4806 26.58C70.7906 26.79 70.1606 27 69.5906 27.27C67.7006 28.14 66.8606 29.64 66.8606 31.65V31.68C66.8606 34.98 69.4706 36.57 74.2106 36.57C79.1906 36.57 82.3706 34.65 83.7806 31.92ZM75.7406 32.97C73.2206 32.97 72.2606 32.37 72.2606 31.23V31.2C72.2606 30.51 72.6206 30 73.3406 29.64C74.2706 29.19 75.7706 28.95 79.0706 28.8C81.8906 28.65 83.0906 28.23 83.5406 27.63V27.75C83.5406 29.49 82.1306 31.17 79.7606 32.19C78.5906 32.7 77.2706 32.97 75.7406 32.97Z" fill="black"/>
<path d="M102.272 36.57C108.992 36.57 112.412 34.05 112.412 30.6C112.412 28.8 111.902 27.57 110.402 26.76C108.962 25.92 106.472 25.5 102.542 25.35C99.662 25.23 98.042 25.08 97.202 24.84C96.362 24.57 96.212 24.21 96.212 23.7C96.212 23.07 96.662 22.47 97.982 22.11C98.672 21.9 99.602 21.84 100.862 21.84C104.072 21.84 106.172 22.38 106.652 24.15H112.172C110.912 19.98 107.402 18.15 100.922 18.15C96.542 18.15 93.752 19.26 92.342 21.06C91.622 21.93 91.292 22.95 91.292 24.12C91.292 27.54 93.962 28.95 100.802 29.16C103.682 29.25 105.392 29.37 106.262 29.61C107.132 29.82 107.372 30.15 107.372 30.72C107.372 31.92 106.292 32.67 102.542 32.67C98.552 32.67 97.082 31.98 96.512 30.3H90.662C91.532 34.56 95.192 36.57 102.272 36.57Z" fill="black"/>
<path d="M118.159 16.14C120.379 16.14 121.459 15.21 121.459 13.05C121.459 10.8 120.289 10.02 118.159 10.02C116.059 10.02 114.859 10.8 114.859 13.05C114.859 15.39 115.819 16.14 118.159 16.14ZM115.429 36H120.679V18.78H115.429V36Z" fill="black"/>
<path d="M124.745 36H129.875V13.2H124.745V36Z" fill="black"/>
<path d="M136.586 16.14C138.806 16.14 139.886 15.21 139.886 13.05C139.886 10.8 138.716 10.02 136.586 10.02C134.486 10.02 133.286 10.8 133.286 13.05C133.286 15.39 134.246 16.14 136.586 16.14ZM133.856 36H139.106V18.78H133.856V36Z" fill="black"/>
<path d="M153.073 36.57C159.793 36.57 163.213 34.05 163.213 30.6C163.213 28.8 162.703 27.57 161.203 26.76C159.763 25.92 157.273 25.5 153.343 25.35C150.463 25.23 148.843 25.08 148.003 24.84C147.163 24.57 147.013 24.21 147.013 23.7C147.013 23.07 147.463 22.47 148.783 22.11C149.473 21.9 150.403 21.84 151.663 21.84C154.873 21.84 156.973 22.38 157.453 24.15H162.973C161.713 19.98 158.203 18.15 151.723 18.15C147.343 18.15 144.553 19.26 143.143 21.06C142.423 21.93 142.093 22.95 142.093 24.12C142.093 27.54 144.763 28.95 151.603 29.16C154.483 29.25 156.193 29.37 157.063 29.61C157.933 29.82 158.173 30.15 158.173 30.72C158.173 31.92 157.093 32.67 153.343 32.67C149.353 32.67 147.883 31.98 147.313 30.3H141.463C142.333 34.56 145.993 36.57 153.073 36.57Z" fill="black"/>
<path d="M175.986 28.02L182.256 36H188.346L179.886 25.47L188.076 18.78H181.176L170.946 27.24V13.2H165.966V36H170.946V31.98L175.986 28.02Z" fill="black"/>
<path fill-rule="evenodd" clip-rule="evenodd" d="M18.7465 20.4939L10.7808 25.2658C10.6911 25.3216 10.6024 25.374 10.5153 25.4254C9.71915 25.8954 9.06294 26.2829 9.13068 28.4794L9.46526 33.5032L17.6575 28.6733C18.2702 28.2825 19.0685 27.4959 19.0154 25.2888L18.7465 20.4939ZM21.6853 18.7279C24.2721 16.8618 26.0275 13.5262 25.8121 9.86712C25.5333 5.12952 22.046 1.32474 17.575 0.450615L18.0078 8.1674C18.0609 10.3745 17.2625 11.1611 16.6499 11.552L5.6784 18.0203C3.05064 19.761 1.27287 23.1148 1.48974 26.8C1.70282 30.4209 3.79007 33.4968 6.72112 35.121L6.68603 35.1417C4.05827 36.8824 2.2805 40.2362 2.49737 43.9214C2.77616 48.659 6.26352 52.4638 10.6514 53.3043L10.1383 45.6007C10.0706 43.4042 10.7268 43.0168 11.5229 42.5468C11.61 42.4954 11.6987 42.443 11.7884 42.3871L22.6464 35.8826C25.2586 34.0231 27.0364 30.6695 26.8198 26.9885C26.6099 23.4224 24.5821 20.3849 21.6853 18.7279Z" fill="url(#paint0_linear_19_9)"/>
<defs>
<linearGradient id="paint0_linear_19_9" x1="12.6158" y1="0.742454" x2="15.6915" y2="53.0077" gradientUnits="userSpaceOnUse">
<stop stop-color="#172FFF"/>
<stop offset="1" stop-color="#61FFEC"/>
</linearGradient>
</defs>
</svg>
